<svg id="Layer_1" data-name="Layer 1" xmlns="http://www.w3.org/2000/svg" viewBox="0 0 373.1 71.88"><defs><style>.cls-1{fill:#fff}</style></defs><path class="cls-1" d="M167.69 48.25h4.37v14.24c0 5.88-4.24 9.74-10.15 9.74s-10.14-3.86-10.14-9.74V48.25h4.36v14.34c0 3.73 2.39 5.81 5.78 5.81s5.78-2.08 5.78-5.81zm55.89-.48c7.49 0 12.5 5.41 12.5 12.23s-5 12.23-12.5 12.23-12.5-5.38-12.5-12.23 5.04-12.23 12.5-12.23zM215.45 60c0 4.5 3.06 8.47 8.13 8.47s8.13-4 8.13-8.47-3-8.46-8.13-8.46-8.13 3.93-8.13 8.46zm37.62 4.19h-4.41v7.57h-4.37V48.25h11.16c5 0 8.53 3.31 8.53 8a7.77 7.77 0 0 1-5.67 7.55l6.71 8h-5.77zm1.81-3.76c2.89 0 4.74-1.64 4.74-4.23s-1.85-4.2-4.74-4.2h-6.22v8.42zm-54.63 3.73A7.57 7.57 0 0 1 193 68.4c-5.07 0-8.13-3.7-8.13-8.4s3.06-8.4 8.13-8.4a7.56 7.56 0 0 1 7.26 4.25l3.45-2A11.89 11.89 0 0 0 193 47.77c-7.55 0-12.53 5.44-12.53 12.23s5 12.23 12.53 12.23a11.89 11.89 0 0 0 10.68-6.08zm93.89 7.6h-4.67l-1.58-4.1H277l-1.58 4.1h-4.67l10-23.51h3.3zm-11.69-18.38l-4.1 10.69h8.2z" transform="translate(-38.21 -24.11)"/><path class="cls-1" d="M103.96 44.02H90.82l13.14-17.92v-1.97H84.82v3.55h12.75L84.82 45.17v2.47h19.14v-3.62z"/><path class="cls-1" d="M319 48.31h2.68v23.46H319V61.18h-13.84v10.59h-2.68V48.31h2.68V58.7H319zm23.77-.47A12.06 12.06 0 0 0 330.3 60c0 6.93 5.3 12.2 12.47 12.2a12.2 12.2 0 1 0 0-24.4zm0 22a9.86 9.86 0 0 1 0-19.71 9.53 9.53 0 0 1 9.78 9.87 9.54 9.54 0 0 1-9.78 9.89zm42-21.58h2.08v23.51h-2.38V54l-9.18 18.1-9.18-18.1v17.8h-2.37V48.31h2.07l9.48 19.1zm26.53 21.11v2.35h-14.94V48.31h14.81v2.34H399v8h11.83V61H399v8.41zM38.21 24.11v41.07a30.71 30.71 0 0 0 8.25 20.95 30.79 30.79 0 0 0 53.35-21V24.11zm42.06 24.54L71 38.75l9.59-10.2L97 44v4.65zM60.53 83.31V51.49h17v31.82zM41.05 44l16.44-15.45 9.59 10.2-9.3 9.9H41.05zm18.83-17h18.28L69 36.68zm1.79 21.7L69 40.83l7.35 7.82zM97 40.1L83 27h14zM55 27L41 40.15V27zM41 51.54h16.69v31.77h-9.94a27.86 27.86 0 0 1-6.7-18.13zm9.49 34.66h37a27.91 27.91 0 0 1-37 0zm39.81-2.89h-9.94V51.49H97v13.69a27.86 27.86 0 0 1-6.7 18.13z" transform="translate(-38.21 -24.11)"/></svg>